<svg xmlns="http://www.w3.org/2000/svg" viewBox="0 0 500 500"><defs><clipPath id="a"><path d="M292.86 226.9a1.34 1.34 0 0 0 0-.2 23.11 23.11 0 0 0-1.12-7.15 83.54 83.54 0 0 0-2.04-8.55 20.12 20.12 0 0 0-9.12-12.11 7.53 7.53 0 0 0-.9-.56.82.82 0 0 0-.2-.12l-.21-.11c-5.7-3.14-12.11-1.67-17 .56a15.86 15.86 0 0 0-6.15 4.92 24.55 24.55 0 0 0-4.44 7.86 23.43 23.43 0 0 0-3.4 25.21 33.74 33.74 0 0 0 .29 3.62c0 .16.24.13.24 0v-2.53q.45.82 1 1.62v1.24c0 .58.86 1.21 2.32 1.84a23.44 23.44 0 0 0 35.19-.54 23.61 23.61 0 0 0 4.1-2.44c.63-.47.83-3 .65-6.54a19.31 19.31 0 0 0 .56-2.53c.28 2.63.5 5.27.71 7.91 0 .19.3.17.3 0a113.11 113.11 0 0 0-.78-11.4Zm-7.77-23.37c-.21-.31-.44-.61-.66-.9a24.43 24.43 0 0 1 5.27 10.53c.26 1 .5 2.06.72 3.09a23.39 23.39 0 0 0-1.28-2.23c-1.14-4.39-2.49-8.26-4.05-10.49Z" style="fill:none"/></clipPath><clipPath id="b"><path d="M302.87 149.8a23.44 23.44 0 1 1-35.37-20.17c1.09-3.5 3.91-6.83 10.2-8.41 12.31-3.07 15 5.81 15.3 6.77a34.19 34.19 0 0 1 1.09 3.48 23.32 23.32 0 0 1 8.78 18.33Z" style="fill:none"/></clipPath></defs><circle cx="120.37" cy="139.93" r="35.6" transform="rotate(-80.52 120.384 139.927)" style="fill:#c7c7c7"/><circle cx="122.01" cy="140.72" r="33.97" style="fill:#a6a6a6"/><circle cx="122.01" cy="140.72" r="31.83" style="fill:#fff"/><path style="fill:#dbdbdb" d="M121.7 111.21h.61v4.82h-.61z"/><path transform="rotate(-30 108.446 117.238)" style="fill:#dbdbdb" d="M108.15 114.84h.62v4.82h-.62z"/><path transform="rotate(-60 98.525 127.17)" style="fill:#dbdbdb" d="M98.22 124.76h.61v4.82h-.61z"/><path style="fill:#dbdbdb" d="M92.49 140.41h4.82v.62h-4.82z"/><path transform="rotate(-30.01 98.513 154.247)" style="fill:#dbdbdb" d="M96.12 153.97h4.82v.61h-4.82z"/><path transform="rotate(-60.03 108.46 164.195)" style="fill:#dbdbdb" d="M106.04 163.89h4.82v.62h-4.82z"/><path style="fill:#dbdbdb" d="M121.7 165.41h.61v4.82h-.61z"/><path transform="rotate(-30 135.543 164.199)" style="fill:#dbdbdb" d="M135.25 161.78h.62v4.82h-.62z"/><path transform="rotate(-60 145.463 154.27)" style="fill:#dbdbdb" d="M145.17 151.86h.61v4.82h-.61z"/><path style="fill:#dbdbdb" d="M146.7 140.41h4.82v.62h-4.82z"/><path transform="rotate(-30 145.5 127.187)" style="fill:#dbdbdb" d="M143.07 126.86h4.82v.61h-4.82z"/><path transform="rotate(-60.03 135.567 117.253)" style="fill:#dbdbdb" d="M133.15 116.94h4.82v.62h-4.82z"/><path transform="rotate(-63.03 120.125 144.433)" style="fill:#dbdbdb" d="M104.71 144.12h30.8v.61h-30.8z"/><path transform="rotate(-11.32 122.801 144.73)" style="fill:#263238" d="M122.41 129.61h.82v30.33h-.82z"/><path d="M212.75 117.86c-.78-.49-1.45-1.2-2.5-1.1-.4 0-.31-.29-.31-.51v-11.77a.64.64 0 0 1 .33-.68c3-1.51 4.29-4.48 6.13-7a11.71 11.71 0 0 0 2.17-8.9c-.12-.89.29-1.28 1.09-1.46a2 2 0 0 1 2.23.7 15.76 15.76 0 0 1 1.72 5.14c.17 1.49-.36 2.94-.55 4.41-.14 1.08-.39 2.15-.59 3.24.26.19.57.09.85.09h9.94c1.4 0 2.08.4 2.28 1.32a2.67 2.67 0 0 1-1.45 2.88c-.24.12-.69 0-.72.4s.43.35.66.51c1.2.83 1 2.52-.41 3.5-.34.24-1 .13-1 .62s.6.39.87.66c1 1 .49 2.75-1 3.47a5.77 5.77 0 0 0-.58.22c-.17.11-.33.24 0 .46 1.44 1 1.41 2.46 0 3.5l-.43.31a2.84 2.84 0 0 1-1.75.38h-15.59a1.83 1.83 0 0 1-1.39-.39ZM198 110.94v-7.48c0-.5 0-.75.67-.75h9.12c.6 0 .69.2.69.73v15c0 .63-.17.82-.81.8h-8.84c-.74 0-.84-.25-.83-.89v-7.41ZM427.55 223.87c.78.49 1.46 1.2 2.5 1.1.4 0 .31.29.32.51v11.77c0 .28 0 .52-.32.68-3 1.51-4.3 4.48-6.14 7a11.75 11.75 0 0 0-2.17 8.9c.13.89-.29 1.28-1.08 1.46a2 2 0 0 1-2.24-.7 15.74 15.74 0 0 1-1.71-5.14c-.18-1.49.36-2.94.54-4.41.14-1.08.39-2.14.6-3.24-.27-.19-.57-.09-.85-.09h-9.95c-1.4 0-2.08-.4-2.27-1.32a2.66 2.66 0 0 1 1.44-2.88c.25-.12.7 0 .73-.4s-.44-.35-.66-.51c-1.2-.83-1-2.52.41-3.5.33-.24 1-.13 1-.62s-.59-.39-.87-.66c-1-1-.48-2.75 1-3.47a4.37 4.37 0 0 0 .58-.22c.17-.11.33-.24 0-.46-1.43-1-1.4-2.46 0-3.5l.43-.31a2.84 2.84 0 0 1 1.75-.38h15.59a1.83 1.83 0 0 1 1.37.39ZM442.33 230.79v7.48c0 .5 0 .75-.67.75q-4.56-.06-9.12 0c-.6 0-.69-.2-.69-.73v-15.05c0-.63.17-.81.81-.8h8.85c.73 0 .83.25.83.89-.03 2.47-.01 4.96-.01 7.46Z" style="fill:#dbdbdb;fill-rule:evenodd"/><path d="M291.81 284.69V422h83V284.69Zm75.45 86.61h-67.92v-35.73h67.92Zm0-44.24h-67.92v-35.73h67.92Z" style="fill:#ebebeb"/><path style="fill:#dbdbdb" d="M374.79 284.69h33.18v137.26h-33.18zM299.35 291.32h16.14v35.73h-16.14zM367.76 413.84h-68.49v-35.06h68.49Zm-67.49-1h66.49v-33.06h-66.49Z"/><path style="fill:#dbdbdb" d="M323.98 388.86h13.4v6.78h-13.4z"/><path d="M341.85 395.63h-14.41v-6.76h14.41Zm-13.41-1h12.41v-4.76h-12.41ZM299.35 335.57h16.14v35.73h-16.14z" style="fill:#dbdbdb"/><path style="fill:#263238" d="m80.51 421.79 44.44-.24 44.43-.09 88.88-.16 88.87.16 44.44.09 44.44.24-44.44.25-44.44.09-88.87.16-88.88-.16-44.43-.09-44.44-.25z"/><ellipse cx="191.7" cy="445.04" rx="141.93" ry="16.11" style="fill:#ebebeb"/><ellipse cx="385.32" cy="445.04" rx="70.9" ry="9.26" style="fill:#ebebeb"/><path d="m84.4 444.33 164 .71c39.86-31.31 44-77.69 15.54-105.8-17.21-17-39.07-13.57-59.88-16.28H204c-7.25-.94-14.36-2.63-21.11-6.19-21.43-11.31-33.51-38-51.54-60.41-2.25-2.81-4.6-5.55-7.06-8.18-14.83-15.83-44.34-16.35-59.77 5.91-39.2 56.54-21.23 140.71 19.88 190.24Z" style="fill:#dbdbdb"/><path d="M80.76 314.94c4.3 67.29 82 92.41 130.55 72.25 42.2-17.53 28.39-57.53-7.23-64.23H204c-7.25-.94-14.36-2.63-21.11-6.19-21.43-11.31-33.51-38-51.54-60.41-26.84-13.96-53.74 9.31-50.59 58.58Z" style="fill:#c7c7c7"/><path d="M217.07 439.79c-2.27-.83-53.56-41.83-54.53-44.63-.38-1.06 5.16-8.88 12.12-18.14 1.5-2 3.06-4 4.66-6.13 10.37-13.51 21.68-27.6 21.68-27.6l34.39 27.33-22.62 26.84-5 5.9s12.62 24.48 13.35 27.66-1.78 9.6-4.05 8.77Z" style="fill:#d3766a"/><path d="M217.07 439.79c-2.27-.83-53.56-41.83-54.53-44.63-.45-1.29 7.81-12.57 16.78-24.27l33.45 26.57-5 5.9s12.62 24.48 13.35 27.66-1.78 9.6-4.05 8.77Z" style="fill:#fff"/><path d="M217.07 439.79c-2.27-.83-53.56-41.83-54.53-44.63-.38-1.06 5.16-8.88 12.12-18.14l33.14 26.34s12.62 24.48 13.35 27.66-1.81 9.6-4.08 8.77Z" style="fill:#f5a523"/><path d="M218 437.15c-8.43-7.08-43.1-34.86-52-41.22-.08-.05-.11 0 0 .06 8.2 7.2 43.1 34.69 51.9 41.3.15.14.25.01.1-.14ZM219.33 426.54a8.83 8.83 0 0 0-6.82-2 8.51 8.51 0 0 0-5.59 3.06c0 .05.05.13.1.08a10.22 10.22 0 0 1 12.22-1 .07.07 0 0 0 .09-.14ZM210.46 406.88c-3.41-2.8-8.37-4.77-12.76-3.67-.17.05-.1.29 0 .32a61.06 61.06 0 0 1 12.44 3.82.28.28 0 0 0 .32-.47Z" style="fill:#263238"/><path d="M212.28 410c-3.4-2.8-8.36-4.77-12.75-3.67-.17.05-.1.29 0 .32a61.25 61.25 0 0 1 12.47 3.86.27.27 0 0 0 .28-.51ZM214.11 413.2c-3.4-2.8-8.36-4.77-12.75-3.67-.17 0-.11.29 0 .31a61.63 61.63 0 0 1 12.43 3.83.28.28 0 0 0 .32-.47ZM215.94 416.36c-3.4-2.8-8.36-4.77-12.75-3.67-.17 0-.11.28 0 .31a61 61 0 0 1 12.43 3.83.28.28 0 0 0 .32-.47ZM174.72 389.51c-3.87-3.07-8.65 2.94-4.78 6s8.66-2.92 4.78-6ZM221.51 400.67c-.58-2.84-3.91-3.18-6.18-2.54a23.14 23.14 0 0 0-10.16 6.3.12.12 0 0 0 0 .19.53.53 0 0 0 .4.77c3.8.26 7.84 1 11.61.1 2.23-.49 4.89-2.14 4.33-4.82Zm-10.06 3.94c-1.88-.08-3.74-.26-5.61-.28 2-1.22 3.9-2.52 6-3.55a25.6 25.6 0 0 1 3.11-1.31c1.66-.54 7.34-.72 4.69 3.3-1.45 2.23-5.96 1.94-8.19 1.84Z" style="fill:#263238"/><path d="M195.6 398.88c2.63 2.85 6.4 4.47 9.71 6.36a.53.53 0 0 0 .76-.42c.07 0 .14 0 .13-.13a23.07 23.07 0 0 0-4.95-10.89c-1.53-1.8-4.48-3.36-6.55-1.33s-.64 4.74.9 6.41Zm-.51-3.62c0-4.82 4.65-1.51 5.73-.15a24.14 24.14 0 0 1 1.85 2.83c1.18 2 2.06 4.17 3 6.29-1.57-1-3.21-1.92-4.82-2.89-1.85-1.16-5.78-3.43-5.76-6.08Z" style="fill:#263238"/><path d="M270.13 318.08c-.06 5.14-5.2 14.52-12.24 25-13.54 20.19-34.15 44.44-39.24 50.36l-1.16 1.34-36.42-28 .42-.54 32.07-42-95.68-.56 36.33-28.25s2.95 1.7 9.07.8c21.12-3.09 68.73-9.93 79.95-9.48 14.48.62 27.12 14.79 26.9 31.33Z" style="fill:#455a64"/><path d="M257.89 343.09c-13.54 20.19-34.15 44.44-39.24 50.36l-37.16-27.19 32.07-42Z" style="fill:#263238"/><path d="M225.08 308.65a42.66 42.66 0 0 0-3.31 4.24l-3.41 4.44v.05c.2-.44.4-.88.61-1.31.71-1.48 1.28-3 2.13-4.42.05-.09-.08-.17-.13-.08-.87 1.4-1.88 2.74-2.62 4.22-.35.69-.68 1.4-1 2.11-.17.39-.35.79-.5 1.18-.07.19-.15.38-.21.58-.5.69-1 1.38-1.49 2.09-1.08 1.56-2 3.21-3.13 4.77-.06.08.08.16.14.08 1.1-1.46 2.34-2.82 3.47-4.27s2.23-3 3.3-4.52 2.07-3 3.12-4.48a45.78 45.78 0 0 0 3.15-4.61.06.06 0 0 0-.12-.07Z" style="fill:#263238"/><path d="M131 255.42c6.78 8.35 31.4 32.22 46.77 35.72 8.47 1.93 49.4 7.66 55 2.55 6.58-6 3.53-28.51-1.7-28.72-15.94-.63-45.44 2.49-52.81.87-3.34-.74-21-12.14-39.88-21.25-7.08-3.45-11.95 5.15-7.38 10.83Z" style="fill:#d3766a"/><path d="M224.79 263s-.09.87-.24 2.35c0 .24 0 .5-.07.77-.09.85-.19 1.85-.3 2.95v.39q-.13 1.38-.3 2.94c0 .25-.06.51-.08.77-.1.95-.21 1.94-.31 2.95v.39c-.11 1-.21 2-.32 3 0 .25-.06.51-.08.76-.11 1-.22 2-.33 2.95 0 .13 0 .26-.05.39-.11 1-.22 2-.33 2.95l-.09.76c-.08.63-.15 1.25-.22 1.85-.05.37-.1.74-.14 1.1v.39q-.11.84-.21 1.62c-.06.46-.12.91-.17 1.33 0 .26-.08.52-.12.76-.2 1.37-.37 2.4-.52 3a1.43 1.43 0 0 1-.13.39s-.05.06-.07.06l-.51-.06-1.42-.15-.77-.08-1.64-.16-1.3-.13h-.4l-2.94-.3-.77-.08-2.94-.3h-.4l-2.94-.31-.77-.08-2.94-.32h-.4l-2.94-.32-.77-.09-2.94-.34h-.4l-2.94-.35-.77-.09-.63-.08-2.31-.29-.4-.05-2.94-.39h-.19l-.58-.08-2.94-.42-.4-.06q-1.59-.24-2.94-.48l-.77-.14c-1.16-.21-2.16-.41-2.94-.61l-.4-.1-.21-.06a12.39 12.39 0 0 1-2.36-1l-.37-.19-.36-.2-.41-.23c-.91-.54-1.89-1.17-2.94-1.9-.13-.08-.26-.18-.4-.28l-.76-.54-1.05-.76-1.13-.85-.77-.59-1.9-1.51-.49-.39-.55-.45-.4-.33-.53-.43c-.68-.57-1.38-1.14-2.07-1.74a4.38 4.38 0 0 1-.34-.29l-.56-.47-.21-.18c-1-.84-2-1.69-2.94-2.56l-.24-.21-.16-.14-.28-.25-2.66-2.39-.62-.56-.15-.14-.7-.63c-.76-.69-1.51-1.39-2.25-2.08L144 270l-.54-.5-.42-.39-2-1.87-.77-.73-.37-.35-.81-.77-1.77-1.7-.39-.38-.88-.86-.41-.4-1.64-1.66-.76-.76-.55-.54-.64-.65-.11-.12a16.41 16.41 0 0 1-1.65-1.95c-.14-.18-.27-.37-.39-.56s-.19-.29-.28-.43a3.26 3.26 0 0 1-.24-.4 13.64 13.64 0 0 1-1.33-2.94 7.49 7.49 0 0 1-.23-.77 9.85 9.85 0 0 1-.32-2.94v-.4a5.79 5.79 0 0 1 1.09-2.94 4.89 4.89 0 0 1 .74-.77 4.26 4.26 0 0 1 .53-.39 3.64 3.64 0 0 1 .39-.23 6.79 6.79 0 0 1 2.95-.71h.8a14.1 14.1 0 0 1 2.48.34l.47.12a2.79 2.79 0 0 1 .39.1 22.94 22.94 0 0 1 2.31.76l.64.26.77.33.38.18c.51.23 1 .49 1.58.78l1 .51.39.21 2.69 1.44.26.14.48.26a2.69 2.69 0 0 1 .29.16c1 .53 2 1.07 2.94 1.61l.4.22 1.7 1 1.24.7.13.07.64.36 2.94 1.67.4.23 1.19.68.7.4 1 .6.77.45 2.94 1.68.36.21 1.3.75 1.64.92.77.44 2.86 1.58h.08l.4.21.28.15c1 .51 1.85 1 2.66 1.37l.77.36a19.62 19.62 0 0 0 2.94 1.17h.15l.25.06a3.67 3.67 0 0 0 .42.07 23.91 23.91 0 0 0 2.52.05h.77c.86 0 1.85 0 2.94-.09h.4l1.19-.05 1.75-.08h.77l2.94-.16h.4l2.94-.17h.77l2.94-.18h.4l2.94-.18.77-.05 2.94-.19h.4l2.94-.2.77-.05 2.94-.2h.4l2.94-.2.77-.06 2.94-.21h.4Z" style="fill:#f5a523"/><path d="M130.33 243.6v12.77a7.02 7.02 0 0 1-.39-.56v-12a3.64 3.64 0 0 1 .39-.21Zm6.66-.24v19.93l.39.38v-20.21a2.79 2.79 0 0 0-.38-.1Zm-3.71-.47v16.74l.76.76v-17.5Zm7.05 1.59v22l.77.73v-22.4Zm3.71 1.8V270l.39.36v-23.87Zm7.05 3.82v26.29l.16.14.24.21v-26.42Zm-3.23-1.77-.48-.26v25.12h.15l.62.56v-25.26a2.69 2.69 0 0 0-.29-.16Zm6.7 3.71-.13-.07v27.33l.21.18.56.47V252.4Zm3.58 2v28.34l.4.33V254.3Zm7.41 4.25-.36-.21v29.72c.14.1.27.2.4.28v-29.76Zm-4.07-2.29v29.11l.77.59v-29.27Zm7.05 4v30.23h.41l.36.2v-30Zm3.71 2.06v29.62l.4.1v-29.5Zm7.2 3.3h-.15V293l.4.06v-27.69Zm-3.86-1.57v28.6l.77.14v-28.37Zm7 1.75v28h.77v-28.01Zm3.71-.11V294l.4.05v-28.63Zm7-.35v29.77h.4v-29.78Zm-3.71.2v29.13l.77.09v-29.25Zm7-.39v30.34l.77.09v-30.46Zm3.71-.22v31h.4v-31Zm7.05-.45v32.18h.4v-32.2Zm-3.71.24V296l.77.08v-31.66Zm7.05-.47v32.74l.77.08V264Zm3.71-.25v33.37h.4v-33.39Zm7.05-.5v29q.1-.78.21-1.62v-.39c0-.36.09-.73.14-1.1v-25.91Zm-3.71.27v33.93l.77.08v-34.06Zm-1.64 33.77 1.64.16.77.08 1.42.15h.58a1.43 1.43 0 0 0 .13-.39Zm-33-3.71h.19l2.94.39.4.05 2.31.29h32.37c0-.24.07-.5.12-.76Zm-14.27-3.34.36.2.37.19h52.25v-.39Zm-9.85-7.05.49.39h63c0-.13 0-.26.05-.39Zm4.29 3.34 1.05.76h57.78l.09-.76Zm-8.74-7 .56.47a4.38 4.38 0 0 0 .34.29H223c0-.25.05-.51.08-.76Zm-3.83-3.34.28.25.16.14h72.16v-.39Zm-7.73-7.05.42.39h80.64v-.39Zm3.6 3.33.7.63v.14h76.38c0-.26.05-.52.08-.77Zm41.25-7.05-1.19.05h-.4c-1.09 0-2.08.08-2.94.09h-.77a23.91 23.91 0 0 1-2.52-.05 3.67 3.67 0 0 1-.42-.07v-.06h-40.42l.81.77h84.52c0-.27.05-.53.07-.77Zm-15.29-3.09-.4-.21H135.7l.41.4h36.81ZM159.73 255h-30.31a3.26 3.26 0 0 0 .24.4h30.77Zm5.86 3.36H132l.11.12.64.65h34.16ZM154.43 252l-1.24-.7h-25.33a7.49 7.49 0 0 0 .23.77h26.47Zm-7.05-3.9-.26-.14h-19.54v.4h20.32Zm-6.28-3.26-.77-.33-.64-.26h-10.28a4.89 4.89 0 0 0-.74.77h12.81Z" style="fill:#fff;opacity:.2"/><path d="M157.61 282c-9.53-7.88-20.45-18.42-25.52-23.54-7-7.05-6.27-17.61 4.43-15.21 2.91 4.82 15.6 28.48 21.09 38.75ZM218.2 266.08c0-.09-.13-.12-.15 0-.46 2.32-.65 4.7-.91 7.05s-.51 4.85-.73 7.29c-.43 4.84-.94 9.72-1.1 14.59a.16.16 0 0 0 .31 0c.73-4.78 1.12-9.64 1.57-14.45.22-2.38.44-4.77.61-7.16s.43-4.89.4-7.32Z" style="fill:#263238"/><path d="M160.13 317.64a4.88 4.88 0 0 1-1.59.51l-.4.08-1 .21-1.9.34-.31.05-.46.07-2.94.47-.4.05c-.93.15-1.91.29-2.94.44l-.77.11-2.94.41-.4.05-2.94.4-.77.1-2.94.38-.4.05-1.19.15-1.75.23h-.34c-.14 0-.29 0-.43.06l-2.94.36-.4.05-2.49.3-.45.05-.77.1-2.94.36-.4.05-2.94.34-.77.09-2.94.34-.4.05-2.94.34c-.26 0-.52.05-.77.09l-2.94.32-.4.05h-.5l-2.44.26-.77.09-2.94.3-.4.05h-.14c-1.09.11-2 .2-2.8.26l-.77.07-.84.06a3.08 3.08 0 0 1-.68 0 .71.71 0 0 1-.06-.39c0-.52 0-1.53.14-2.94 0-.24 0-.5.06-.77.08-.87.18-1.85.3-2.95v-.39c.1-.92.21-1.9.33-2.95l.09-.76c.11-.94.23-1.93.36-3v-.39q.11-.78.21-1.59l.18-1.36c0-.25.07-.5.1-.76.13-1 .27-1.94.41-2.95l.06-.39a1.11 1.11 0 0 1 0-.17c.13-.91.26-1.84.4-2.78 0-.25.07-.5.11-.76.15-1 .3-1.95.45-2.95l.06-.39c.15-1 .3-2 .46-3 0-.25.09-.5.13-.76.15-1 .32-2 .48-2.95 0-.13 0-.26.06-.39.17-1 .34-2 .52-2.95 0-.25.08-.51.13-.76s.09-.54.14-.8l.39-2.15v-.07l.06-.32c.18-1 .37-2 .56-2.95 0-.25.09-.51.15-.76.18-1 .38-2 .57-3l.09-.39c.2-1 .4-2 .61-2.95.06-.26.11-.51.16-.77.22-1 .44-2 .67-2.94 0-.11 0-.21.07-.32s0-.05 0-.07c.23-1 .47-2 .7-2.95l.06-.23c0-.18.09-.36.14-.54.25-1 .5-2 .76-2.94 0-.13.07-.27.11-.4.27-1 .55-2 .83-2.94l.24-.77c.28-.93.57-1.82.86-2.66 0-.09.06-.19.1-.28s.09-.27.14-.4.1-.3.16-.44c.17-.49.35-1 .53-1.41s.29-.74.44-1.09.23-.52.34-.77a19 19 0 0 1 1.61-2.94s.18-.26.27-.37a7.71 7.71 0 0 1 .5-.59l.28-.28.53-.48c.68-.6 1.31-1.13 1.9-1.59a1.81 1.81 0 0 1 .23-.18l.4-.31.38-.28c.92-.68 1.76-1.23 2.56-1.73l.93-.27.16-.1a6.61 6.61 0 0 1 1.36-.62 12.69 12.69 0 0 1 1.42-.38h.11l.29-.06a28.07 28.07 0 0 1 2.94-.37h.77c1 0 2-.07 2.94 0h.4c1.09 0 2.1.09 2.94.18l.77.09a9.06 9.06 0 0 1 1.37.25l.17.06a2.2 2.2 0 0 1 .54.34 8 8 0 0 1 .86.83l.4.45c.39.47.83 1 1.27 1.66.18.25.36.5.54.77.37.55.75 1.15 1.13 1.78.23.37.47.76.69 1.16l.08.13.15.27c.53.94 1 1.93 1.52 2.94.13.25.25.51.37.77q.48 1.05.9 2.13c.11.27.21.54.31.81l.09.24.06.16a29.52 29.52 0 0 1 .86 2.84.3.3 0 0 1 0 .1c.06.22.12.48.2.77.19.77.44 1.76.75 2.94 0 .13.07.26.11.4.23.89.48 1.87.77 2.94 0 .22.11.45.17.68a.29.29 0 0 1 0 .09q.36 1.33.75 2.82v.13c0 .13.07.26.1.39l.78 2.94c.06.25.13.51.2.77.25 1 .51 1.94.77 2.95 0 .13.07.26.11.39.25 1 .51 2 .77 3l.18.69a.64.64 0 0 1 0 .07c.13.47.25.95.38 1.43l.39 1.52c0 .13.07.26.11.39.25 1 .51 2 .76 2.95.07.25.14.5.2.76.26 1 .52 2 .77 2.95 0 .13.07.26.1.39.2.78.41 1.56.61 2.34l.15.61c.07.25.13.51.2.76l.42 1.63c.11.45.22.89.34 1.32 0 .13.06.26.1.39l.74 2.95c.07.26.13.51.2.76.25 1 .5 2 .73 2.95 0 .13.07.26.1.39l.72 2.95.18.74c.07.33.15.65.22 1 .17.69.33 1.36.47 2l.09.39c.26 1.13.47 2.12.64 3 .06.27.11.53.15.76a6 6 0 0 1 .29 1.91Z" style="fill:#f5a523"/><path d="M102.14 283.51v41.92l-.4.05v-39.75l.39-2.15s.01-.05.01-.07Zm-3.36 20.83-.06.39c-.14 1-.28 2-.41 2.95 0 .26-.07.51-.1.76L98 309.8v16l.77-.07v-21.56a1.11 1.11 0 0 0 .01.17Zm7-38.2c-.23 1-.47 1.95-.7 2.95v56l.77-.09v-59.09ZM109 255c0 .13-.1.26-.14.4s-.07.19-.1.28v69.07l.4-.05v-70.16c-.03.14-.08.29-.16.46Zm6.81-10.17v79.12l.4-.05v-79.4Zm-3.44 3.12c-.09.11-.18.24-.27.37v76.06c.25 0 .51-.06.77-.09v-76.95a7.71 7.71 0 0 0-.47.59Zm6.78-5.44v81.05l.77-.09V242Zm3.82-1.61h-.11v82.23l.4-.05v-82.26Zm6.94-.52v81.89l.4-.05v-81.86Zm-3.71.09v82.23l.77-.1v-82.19Zm7 .09v81.3c.14 0 .29 0 .43-.06h.34v-81.17Zm3.71 1.57v79.25l.4-.05v-78.77Zm7.44 12.87c-.1-.27-.2-.54-.31-.81v66.26l.4-.05V255Zm-3.33-7c-.22-.4-.46-.79-.69-1.16V321l.77-.1v-72.84Zm6.38 18.21a.29.29 0 0 0 0-.09V320l.77-.11V269l-.77-2.86Zm3.71 14.1a.64.64 0 0 0 0-.07v39.25l.4-.05v-37.7c-.15-.55-.27-1.03-.4-1.5Zm7.21 28.2-.18-.74v10.53l.4-.08v-8.74c-.07-.39-.15-.71-.22-1.04Zm-3.54-14.1c-.07-.25-.13-.51-.2-.76l-.15-.61v25.86l.46-.07.31-.05V296Zm-58.33 31.08a.71.71 0 0 0 .06.39H98v-.06l.77-.07c.77-.06 1.71-.15 2.8-.26Zm.2-3.71c0 .27 0 .53-.06.77h30.86l2.49-.3.4-.05 2.94-.36c.14 0 .29 0 .43-.06Zm.34-3.34v.39h57.94l.31-.05 1.9-.34Zm62-7.05H97.82v.39h61.28Zm.73 3.34H97.41l-.09.76h62.57c-.04-.23-.09-.49-.15-.76Zm-1.6-7H98.31c0 .26-.07.51-.1.76h60.11Zm-.83-3.36H98.78l-.06.39h58.69c-.03-.16-.07-.29-.1-.42Zm-1.77-7h-55.7l-.06.39h55.88c-.04-.21-.07-.34-.1-.47Zm.84 3.34H99.31c0 .26-.07.51-.11.76h57.38c-.07-.33-.13-.58-.2-.84Zm-1.8-7.05h-54.15c0 .26-.09.51-.13.76h54.5c-.07-.33-.13-.59-.2-.84Zm-.86-3.34H101c0 .13 0 .26-.06.39h52.93c-.08-.21-.12-.34-.15-.47Zm-1.84-7.05H102.2l-.06.32v.07H152c0-.21-.08-.34-.12-.47Zm.87 3.34H101.6c0 .25-.09.51-.13.76H153c-.11-.37-.18-.59-.25-.84Zm-1.66-6.36-.18-.69h-48c-.06.25-.11.51-.15.76h48.35a.64.64 0 0 0 0-.15Zm-1.06-4h-46.44l-.09.39h46.66c-.04-.24-.07-.37-.14-.5Zm-1.85-7.05h-43.1v.07c0 .11 0 .21-.07.32h43.27c-.01-.24-.05-.37-.08-.5Zm.88 3.33h-44.7c0 .26-.1.51-.16.77h45.08c-.07-.37-.14-.63-.2-.88Zm-1.68-6.37c-.06-.23-.12-.46-.17-.68H106c0 .18-.1.36-.14.54l-.06.23h41.6a.29.29 0 0 0-.02-.2Zm-1-4h-39.5c0 .13-.08.27-.11.4h39.69c-.04-.27-.08-.4-.11-.56Zm-1.89-6.81V255H109c0 .13-.1.26-.14.4h35.64Zm.94 3.1h-37.48l-.24.77h37.89c-.08-.42-.14-.68-.2-.9Zm-2.61-7h-32.3c-.11.25-.23.5-.34.77h33c-.16-.44-.26-.7-.39-.95Zm-1.67-3.21-.08-.13H112.4c-.09.11-.18.24-.27.37h29.14Zm-5.51-7.12-.17-.06h-12.56a12.69 12.69 0 0 0-1.42.38h14.66a2.2 2.2 0 0 0-.54-.5Zm3.07 3.28h-22l-.38.28-.4.31a1.81 1.81 0 0 0-.23.18h23.52c-.2-.45-.36-.7-.54-.95Z" style="fill:#fff;opacity:.2"/><path d="M135.8 321.51c-9.43 1.21-19.8 2.43-27.51 3.27l1.43-71.65c1.12-2.88 2.29-5 3.46-6.07l.53-.48ZM148.8 311.53q-.72-3.33-1.45-6.66-1.47-6.66-3-13.31-3.09-13.41-6.55-26.73c-1.28-5-2.65-9.94-3.91-14.93a.08.08 0 0 0-.15 0c2.31 8.84 4.32 17.76 6.39 26.66s4.1 17.72 6.08 26.6l1.65 7.47c.55 2.52 1 5.12 1.72 7.58.08.28.57.22.53-.08-.26-2.13-.84-4.4-1.31-6.6Z" style="fill:#263238"/><path d="M133.84 252.19c-3.7.51-9.4-5.62-11.43-10.34-.14-.32.64-3.52 1.41-7.45.45-2.39.9-5.06 1.14-7.52 0-.51 1.68.58 1.68.58l3.11 1.08 10.31 3.56a39.38 39.38 0 0 0-2.39 9.32 5 5 0 0 0 0 1v.17c.14 1.98-.25 9.1-3.83 9.6Z" style="fill:#d3766a"/><path d="M137.68 242.45v.17a9.77 9.77 0 0 1-1.59-.07C125.7 241.33 125.65 228 125.65 228l4.1.57 10.31 3.56a39.38 39.38 0 0 0-2.39 9.32 5 5 0 0 0 .01 1Z" style="fill:#263238"/><path d="M126.84 207.26c-2.77 5-3.18 21.21-.08 25.48 4.51 6.2 13.5 8.58 19.18 2.8 5.5-5.61 5.66-26.69 2-30.74-5.29-5.97-17-5-21.1 2.46Z" style="fill:#d3766a"/><path d="M140.25 220.66s-.09.05-.09.09c0 1.09-.18 2.34-1.18 2.67v.06c1.22-.13 1.44-1.79 1.27-2.82Z" style="fill:#263238"/><path d="M139.31 219.49c-1.75-.18-2 3.32-.37 3.5s1.83-3.34.37-3.5ZM146.52 221.27s.09.06.08.11c-.11 1.08 0 2.34.91 2.77v.06c-1.21-.21-1.26-1.93-.99-2.94Z" style="fill:#263238"/><path d="M147.57 220.21c1.76 0 1.65 3.5 0 3.51s-1.47-3.5 0-3.51ZM138 217.79a13.62 13.62 0 0 0 1.39-.38 2.31 2.31 0 0 0 1.34-.66.75.75 0 0 0-.05-.91 1.85 1.85 0 0 0-1.84-.32 2.7 2.7 0 0 0-1.64 1.06.79.79 0 0 0 .8 1.21ZM149.05 218.54c-.48-.12-.9-.3-1.37-.46a2.34 2.34 0 0 1-1.3-.74.74.74 0 0 1 .1-.9 1.87 1.87 0 0 1 1.86-.22 2.74 2.74 0 0 1 1.58 1.15.8.8 0 0 1-.87 1.17ZM139 230.28c.24.27.48.64.87.7a2.86 2.86 0 0 0 1.19-.19v.06a1.48 1.48 0 0 1-1.42.49 1.16 1.16 0 0 1-.79-1c.01-.09.15-.1.15-.06Z" style="fill:#263238"/><path d="M139.91 227.5a3.71 3.71 0 0 0 2.35 1.82 4.57 4.57 0 0 0 1.33.15 1.11 1.11 0 0 0 .26 0h.24a.27.27 0 0 0 .23-.23.41.41 0 0 0 0-.11V229c.08-.84.08-2.11.08-2.11.3.17 1.81 1 1.81.54a55.7 55.7 0 0 0-.65-11.3.1.1 0 0 0-.2 0c-.18 3.49.27 7 .15 10.5a6.52 6.52 0 0 0-1.71-.66c-.12 0 0 2.47 0 2.85a5.15 5.15 0 0 1-3.74-1.46c-.12-.02-.21.05-.15.14ZM148.72 210.27c-5.57 3.17-12.31-2.89-12.31-2.89a5.75 5.75 0 0 1-6.11 3.14s-1.78 8.82-4.13 8.61c-3.58-.32-3.67-12.57-2.34-14.86s4.42-2.65 4.42-2.65a5.9 5.9 0 0 1 2.73-3.34c2.6-1.67 10.82 1.56 10.82 1.56a7.9 7.9 0 0 1 2.41-2.74 2.22 2.22 0 0 1 3.16.56 5.25 5.25 0 0 0-1 2.13c-.64 2.57 1.49 2.74 1.67.38a3.76 3.76 0 0 0-.63-2.51c1.18-1.46 2.94-1.82 3.91-.9 1.73 1.66 2.03 10.88-2.6 13.51Z" style="fill:#263238"/><path d="M127.51 220.64s-2.58-5.72-5.11-4.89-1.25 8.65 1.25 10.16a2.79 2.79 0 0 0 3.95-.78Z" style="fill:#d3766a"/><path d="M122.82 218s-.06.05 0 .07c1.75 1.12 2.41 3.06 2.77 5a1.54 1.54 0 0 0-2.19-.84c-.05 0 0 .11 0 .11a1.72 1.72 0 0 1 1.75.94 8.64 8.64 0 0 1 .6 1.66c.06.19.38.16.35-.05.5-2.46-.74-6.18-3.28-6.89Z" style="fill:#263238"/><path d="m137.68 242.62-3.36 8.38-11.61-11.16-3.09 3.77s11.56 17.94 11.61 17.12l3.51-7.94 5.56 5.29-.83-13.66Z" style="fill:#f5a523"/><path d="M140.27 251.29c-.21-2.25-.36-4.53-.68-6.77a.08.08 0 0 0-.15 0c-.39 2.19.47 10.79.52 12.86-.24-.23-5.15-4.65-5.2-4.58-.77 1.27-3.35 7-3.53 7.57-1.83-2.85-9.57-14.07-11.71-16.75a.08.08 0 0 0-.13.08c1.63 3 11.63 17.83 11.77 17.79a86.89 86.89 0 0 0 3.67-8.39c.84 1 5.82 6 5.83 5.63a70.57 70.57 0 0 0-.39-7.44Z" style="fill:#263238"/><path style="fill:#a6a6a6" d="M183.41 303.24h40.61l7.67-57.47h-40.6l-7.68 57.47z"/><path style="fill:#dbdbdb" d="M185.41 303.24h40.6l7.68-57.47h-40.61l-7.67 57.47z"/><path d="M213.5 271.66a4.4 4.4 0 0 1-4.3 3.95 3.56 3.56 0 0 1-3.6-3.95 4.39 4.39 0 0 1 4.29-4 3.57 3.57 0 0 1 3.61 4Z" style="fill:#fff"/><path d="M110.35 258.62c-1.91 26.75 2.8 45.17 7.51 47.14 12.7 5.32 51.31 8.28 60.16 7.34 3.46-.36 1.18-29.05-2.54-29-9.22.25-43 .53-43.44.33-2.87-1.35-3-10.27-9.64-29.33-5.35-15.38-11.27-7.42-12.05 3.52Z" style="fill:#d3766a"/><path d="M205 278.42a4.15 4.15 0 0 1 0 4.73 6.12 6.12 0 0 1 3.16 2.73c1.13 2.27-1.92 5-1.92 5a7.61 7.61 0 0 1 2.87 3.42c.87 2.28-1.82 5.51-1.82 5.51a6.68 6.68 0 0 1 .64 4.59c-.69 2.66-7.32 6.05-11.27 7.31s-16.32 1.15-18.69 1.36l-8.31-25.26s16.08-10.69 20.93-11.52c4.14-.66 12.5-.45 14.41 2.13Z" style="fill:#d3766a"/><path d="M204.74 282.8c-4.52-.31-8.88.74-13.3 1.55-.1 0-.07.17 0 .15 4.38-.85 8.88-.82 13.29-1.49a.11.11 0 0 0 .01-.21ZM206.1 290.61a11.71 11.71 0 0 0-3 .49c-1.07.25-2.13.52-3.19.8-2.11.57-4.22 1.19-6.3 1.87a.08.08 0 1 0 0 .15c2.11-.56 4.23-1.1 6.36-1.57 1.07-.24 2.14-.46 3.21-.68a14 14 0 0 0 3-.77.15.15 0 0 0-.08-.29ZM207.25 299.86a8.1 8.1 0 0 0-2.72.59l-2.88.82c-1.93.54-3.85 1.07-5.79 1.54-.1 0-.07.18 0 .15 2-.46 4-.9 5.92-1.39 1-.23 1.94-.48 2.91-.73a7.57 7.57 0 0 0 2.56-.89s.05-.09 0-.09Z" style="fill:#263238"/><path d="M171.86 282.74v32.2l-2.56-.13h-1.63l-2.08-.11h-.4l-2.94-.19h-.77l-2.94-.2h-.4l-2.94-.23-.77-.06-2.94-.25h-.4l-2.94-.27-.77-.08-2.94-.31h-.4c-1-.1-2-.22-2.94-.33l-.77-.09-2.94-.38-.39-.31-1.43-.2-1.51-.22-.77-.12-.28-.05c-.91-.14-1.79-.29-2.66-.45l-.4-.07c-1-.18-2-.37-2.94-.57l-.77-.17c-1-.23-2-.46-2.94-.71l-.4-.11q-1.53-.42-2.79-.87l-.15-.05-.77-.3c-.32-.14-.63-.27-.91-.41a8.68 8.68 0 0 1-2-1.25l-.1-.09-.3-.31a8.19 8.19 0 0 1-1-1.3c-.08-.12-.15-.25-.23-.39a19.44 19.44 0 0 1-1.36-2.95l-.27-.76-.09-.28c-.27-.8-.53-1.66-.77-2.57v-.1l-.09-.39c-.25-.94-.47-1.93-.69-3 0-.25-.1-.5-.14-.76-.2-.95-.37-1.94-.53-2.95 0-.13-.05-.26-.07-.39-.15-1-.29-1.95-.42-2.95 0-.25-.07-.51-.1-.76-.12-1-.24-2-.34-2.95v-.39c-.1-1-.19-2-.27-2.95l-.06-.76c-.06-.76-.11-1.52-.16-2.28v-1.06c-.06-1-.1-2-.14-2.95v-.77c0-1-.06-2-.08-2.94v-4.11c0-1 0-2 .06-2.94v-.4c0-1 .07-2 .13-2.94v-.77c0-.48.07-.93.11-1.37s.11-1.08.17-1.57v-.4c.09-.69.2-1.31.31-1.85.08-.38.16-.74.26-1.09s.15-.52.23-.77a11.65 11.65 0 0 1 1.37-2.94l.3-.4.25-.3a4.78 4.78 0 0 1 .77-.73 3.79 3.79 0 0 1 2.94-.86l.4.08a6.31 6.31 0 0 1 2.92 1.81c.12.12.24.24.36.38s.28.31.41.48a16.66 16.66 0 0 1 1.64 2.46l.42.77c.3.59.59 1.22.88 1.9.13.32.27.65.4 1l.15.4c.29.79.58 1.63.85 2.52 0 .14.09.28.13.42s.15.51.24.77l.89 2.94.12.4c.18.61.36 1.21.54 1.79.12.39.24.77.35 1.15s.16.52.23.77.13.4.19.6l.72 2.35c0 .13.09.26.13.39l.91 2.94c.09.26.17.52.24.77.33 1 .64 2 .94 2.89v.06c0 .06.08.26.13.39l.25.74c.27.81.53 1.54.77 2.21l.29.76a18.1 18.1 0 0 0 1.33 2.95 2.4 2.4 0 0 0 .31.39.42.42 0 0 0 .24.11h.77l2.94-.06H141.17l2.94-.07h.4l2.94-.07h.77l2.94-.07h.4l2.94-.07h.77l2.94-.08h.4l2.94-.08h.77l2.94-.07h.4l2.94-.08h.77Z" style="fill:#f5a523"/><path d="M109.19 257v20.2-1.06c-.06-1-.1-2-.14-2.95v-.77c0-1-.06-2-.08-2.94v-4.11c0-1 0-2 .06-2.94v-.4c0-1 .07-2 .13-2.94v-.77c-.05-.48-.01-.93.03-1.32Zm6.65-11v60l.3.31.1.09v-60.28Zm-3.71 1.59v50.15c.24.91.5 1.77.77 2.57V246.9a4.78 4.78 0 0 0-.77.73Zm7.41.7c-.12-.14-.24-.26-.36-.38v60.14l.77.3v-59.54c-.13-.17-.27-.33-.41-.48Zm3.35 5.61v55.37l.4.11v-54.45c-.13-.34-.29-.67-.4-.99Zm7.2 22.59c-.05-.13-.09-.26-.13-.39s0 0 0-.06v34.79l.4.07v-33.63Zm-3.28-10.39c-.07-.25-.15-.51-.23-.77s-.23-.76-.35-1.15v45.91l.77.17v-44.12Zm6.47 17.55v27.75l.77.12v-27.84Zm3.71-.11V312l.4.06v-28.48Zm7-.13v29.39h.4v-29.36Zm-3.71.09v28.88l.77.09v-29Zm7-.17v29.82l.77.08v-29.88Zm3.71-.09v30.26h.4v-30.23Zm7-.18v31h.4v-30.97Zm-3.33.09h-.38v30.64l.77.06v-30.67Zm6.67-.18v31.34h.77V283Zm3.71-.09v31.67h.4v-31.64Zm3.34-.09v31.94h.77v-32ZM133 311.39l.28.05.77.12 1.51.22h36.3v-.39Zm34.67 3.34h1.63l2.56.13v-.21Zm-49.4-7.05c.28.14.59.27.91.41l.77.3.15.05h51.76v-.76Zm-3.65-3.34c.08.14.15.27.23.39h57v-.39Zm-2.61-7 .09.39h59.76v-.39Zm1 3.34.27.76h58.6v-.76Zm-1.81-7.05c0 .26.09.51.14.76h60.54v-.76Zm-.6-3.34c0 .13 0 .26.07.39h61.21v-.39Zm-.9-7.05v.39H133a2.4 2.4 0 0 1-.31-.39Zm44.75 0-2.94.07h-.4l-2.94.07h-.77l-2.94.07H144l-2.94.07h-2.41 33.17v-.39Zm-44.37 3.34c0 .25.06.51.1.76h61.7v-.76Zm21.05-7h-21.78l.06.76h22Zm-1.13-3.44h-20.88v.39h20.94c-.06-.13-.06-.26-.06-.39Zm-2.24-7.05h-18.9v.39h19c-.05-.13-.09-.26-.14-.39Zm1 3.33h-19.82v.77h20c-.01-.25-.09-.51-.18-.77Zm-2.18-7.05h-17.75v.77h18c-.09-.25-.17-.51-.25-.77Zm-1-3.34H108.9v.4h16.8Zm-2.26-7h-13.9v.4h14.1Zm1.13 3.34h-15.37v.77h15.65c-.14-.31-.21-.56-.29-.82Zm-2.85-7h-11.39c-.08.25-.16.51-.23.77h12Zm-2.42-3.37h-7.3l-.3.4h8c-.16-.21-.28-.33-.4-.4Z" style="fill:#fff;opacity:.2"/><path d="M172.07 282.75a.33.33 0 0 0-.3-.48c-5.06-.06-10.15.21-15.21.34s-10.14.23-15.21.4c-2.85.1-8.33.35-8.38.27s-1.58-4.84-1.91-5.83c-.64-1.93-1.31-3.85-2-5.78-.19-.56-.39-1.12-.59-1.67-.06-.38-.13-.76-.17-1.13s-.12-1-.18-1.56a28.9 28.9 0 0 0-.51-3.07.08.08 0 0 0-.15.05 17.19 17.19 0 0 1 .32 3.2l.06.77c-1-2.66-1.24-3.13-2.09-5.82a.08.08 0 1 0-.15 0c1 3.89 1.54 5.56 2.76 9.4.62 1.94 1.23 3.88 1.88 5.82.32.94 1.78 5.34 2.25 6.22.06.11 5.2-.18 7.73-.22s5.07-.08 7.61-.14l15.21-.38c2.81-.07 5.64-.07 8.45-.23 0 .33.25 2 .23 2.11s.16.13.15 0 .21-2.24.2-2.27ZM166.17 285.31c0-.08-.14-.11-.16 0-.32 2.23-.37 4.51-.5 6.76s-.23 4.66-.31 7c-.15 4.65-.38 9.32-.25 14a.15.15 0 0 0 .3 0c.46-4.59.57-9.24.74-13.85q.13-3.42.2-6.86c.03-2.36.15-4.74-.02-7.05Z" style="fill:#263238"/><path d="M172.11 301.82v-1.49a.36.36 0 0 0 0-.22v-.28h-.08V300.18c-.09 2.41-.35 4.82-.46 7.23s-.15 4.85-.13 7.29c-2.75-.23-5.54-.2-8.3-.34s-5.72-.35-8.58-.58c-5.73-.46-11.45-1-17.15-1.81l-4.75-.67c-1.61-.23-3.29-.35-4.87-.73-.1 0-.14.14 0 .16 1.45.18 2.89.58 4.33.84s2.82.5 4.24.72q4.24.68 8.51 1.2 8.52 1.06 17.1 1.49l4.91.21c1.61.05 3.24.15 4.85.07a.29.29 0 0 0 .27-.26c0-2.53.13-5.06.16-7.59v-3.72c-.02-.63-.03-1.25-.05-1.87Z" style="fill:#263238"/><path d="M231.48 262.31c2.55 3.28 8.45 6.86 9.47 9.77a3.55 3.55 0 0 1-1.12 4.08s3.32.83 3.81 3.62c.25 1.44-1.83 3.11-1.83 3.11a4.22 4.22 0 0 1 2.91 3.29c.22 2-1.89 3.37-1.89 3.37s2.17 1.92 1.74 4c-.86 4.28-17.74 8-21.72 2.36-1.86-2.63 2.31-3.31 2.31-3.31s-6.23-.47-7.09-3.93 4.62-4 4.62-4-6.05-.5-6.57-4.18 5-3.46 5-3.46-4.31-1.71-4.07-4.62c.4-4.8 9.82-.71 13.34-2.41Z" style="fill:#d3766a"/><path d="M242.53 289.81v.09a30 30 0 0 1-17.62 2.8c-.19 0-.22-.36 0-.36a61.29 61.29 0 0 0 17.62-2.53ZM241.9 282.9c.06 0 .1.09 0 .12a28.08 28.08 0 0 1-19.41 1.86c-.22-.06-.36-.35-.09-.29 4.48.96 14.16-.02 19.5-1.69ZM220.71 276.76c6.35 1.62 12.59 1 18.91-.48.08 0 .1.09 0 .13-2.88 1.59-7 2.13-10.26 2.29a17.21 17.21 0 0 1-8.74-1.72c-.08-.05-.05-.25.09-.22Z" style="fill:#263238"/><path d="M350.05 393.33c-.84 2.26-42 53.43-44.8 54.39-1.06.37-8.86-5.19-18.1-12.18-2-1.51-4-3.08-6.12-4.68-13.47-10.41-27.52-21.77-27.52-21.77l27.43-34.31 26.77 22.72 5.88 5s24.52-12.54 27.71-13.26 9.59 1.82 8.75 4.09Z" style="fill:#d3766a"/><path d="M350.05 393.33c-.84 2.26-42 53.43-44.8 54.39-1.3.44-12.54-7.86-24.22-16.86l26.68-33.36 5.88 5s24.52-12.54 27.71-13.26 9.59 1.82 8.75 4.09Z" style="fill:#fff"/><path d="M350.05 393.33c-.84 2.26-42 53.43-44.8 54.39-1.06.37-8.86-5.19-18.1-12.18l26.44-33.06s24.52-12.54 27.71-13.26 9.59 1.84 8.75 4.11Z" style="fill:#f5a523"/><path d="M347.42 392.41c-7.12 8.41-35 43-41.39 51.84 0 .07 0 .11.05 0 7.23-8.17 34.84-43 41.48-51.76.14-.15.01-.25-.14-.08ZM336.81 391a8.82 8.82 0 0 0-2 6.81 8.57 8.57 0 0 0 3 5.6c.05 0 .13-.05.08-.1a10.23 10.23 0 0 1-1-12.23.07.07 0 0 0-.08-.08ZM317.12 399.84c-2.81 3.39-4.8 8.35-3.71 12.74 0 .17.29.11.32 0a60.8 60.8 0 0 1 3.86-12.42.28.28 0 0 0-.47-.32ZM320.29 398c-2.81 3.39-4.8 8.35-3.71 12.74 0 .17.28.11.31 0a60.83 60.83 0 0 1 3.87-12.42.28.28 0 0 0-.47-.32ZM323.45 396.2c-2.81 3.39-4.8 8.35-3.71 12.74.05.17.29.11.32 0a60.8 60.8 0 0 1 3.86-12.42.28.28 0 0 0-.47-.32ZM326.62 394.38c-2.81 3.4-4.8 8.35-3.71 12.74 0 .17.28.11.31 0a61 61 0 0 1 3.87-12.42.28.28 0 0 0-.47-.32ZM299.64 435.51c-3.09 3.86 2.91 8.67 6 4.8s-2.91-8.66-6-4.8Z" style="fill:#263238"/><path d="M311 388.76c-2.84.58-3.19 3.9-2.56 6.17a23.05 23.05 0 0 0 6.27 10.18.11.11 0 0 0 .18 0 .54.54 0 0 0 .78-.4c.27-3.8 1-7.83.14-11.61-.58-2.22-2.18-4.89-4.81-4.34Zm3.9 10.08c-.09 1.87-.27 3.73-.29 5.61a69.82 69.82 0 0 1-3.53-6 24.89 24.89 0 0 1-1.3-3.11c-.54-1.66-.7-7.34 3.31-4.68 2.16 1.44 1.91 5.95 1.76 8.18Z" style="fill:#263238"/><path d="M309.07 414.67c2.86-2.62 4.49-6.39 6.4-9.69a.53.53 0 0 0-.42-.76.12.12 0 0 0-.14-.13A23 23 0 0 0 304 409c-1.8 1.52-3.37 4.47-1.35 6.54s4.75.66 6.42-.87Zm-3.62.5c-4.82-.05-1.5-4.66-.12-5.73a24.14 24.14 0 0 1 2.83-1.85c2-1.17 4.18-2 6.3-3-1 1.56-1.93 3.2-2.91 4.8-1.16 1.91-3.45 5.8-6.1 5.78Z" style="fill:#263238"/><path d="m306.28 392.32-28.55 38.52L181.39 364l-9.29-6.45s-2.63 1.77-6.59 4c-5.5 3-13.56 6.89-20.69 7.94-12 1.77-31.93 1.58-42-11.9-8.49-11.35-2.69-31.91-2.69-31.91l14-1.55s29-24.23 49.18-25c8.55-.34 21 6.14 32.53 12.91s110.44 80.28 110.44 80.28Z" style="fill:#455a64"/><path d="M172.1 357.54s-2.63 1.77-6.59 4c-7-8.38-21.82-23.6-22.27-24.14ZM123.45 317.08c-1.86 1.28-3.65 2.66-5.49 4s-3.66 2.53-5.37 3.95-3.4 3-5 4.55c-.79.75-1.58 1.51-2.34 2.28a22.32 22.32 0 0 0-2.24 2.43c-.06.08.06.18.14.13a28.17 28.17 0 0 0 2.49-2c.87-.73 1.72-1.48 2.59-2.21 1.67-1.42 3.37-2.8 5-4.23s3.19-3 4.83-4.39 3.6-3 5.43-4.42c.03-.06 0-.12-.04-.09ZM299.58 390.94c-1.86 2-3.57 4.15-5.3 6.26s-3.46 4.25-5.17 6.39c-3.42 4.27-6.88 8.53-10.24 12.85-1.85 2.38-3.67 4.77-5.39 7.24a.11.11 0 0 0 .18.14c3.69-4.05 7-8.37 10.47-12.64s6.84-8.58 10.19-12.91c1.84-2.37 3.74-4.73 5.43-7.21a.11.11 0 0 0-.17-.12ZM223.08 330.79c-3.39-3.93-17.93-14.24-27.22-18.85a.08.08 0 0 0-.07.14c9.26 5.95 24.52 17.23 27.15 18.91.12.07.23-.1.14-.2Z" style="fill:#263238"/><path style="fill:#f5a523" d="m182.9 224.94 2.57 5.2 5.73.83-4.15 4.05.98 5.71-5.13-2.7-5.12 2.7.97-5.71-4.15-4.05 5.74-.83 2.56-5.2zM201.94 208.28l1.85 3.9 4.13.62-2.99 3.03.71 4.28-3.7-2.02-3.71 2.02.71-4.28-2.99-3.03 4.14-.62 1.85-3.9zM187.14 183.96l1.17 2.37 2.61.38-1.89 1.84.45 2.61-2.34-1.23-2.34 1.23.45-2.61-1.89-1.84 2.61-.38 1.17-2.37zM201.94 170.04l.88 1.8 1.99.28-1.44 1.4.34 1.98-1.77-.94-1.78.94.34-1.98-1.44-1.4 1.99-.28.89-1.8z"/><path style="fill:#ebebeb" d="M240.55 195.09h150.56v60.19H240.55zM240.58 255.29v11.96l10.84-11.96h-10.84z"/><circle cx="269.43" cy="226.69" r="23.43" style="fill:#fff"/><path style="fill:#f5a523" d="m309.71 206.37 1.71 3.47 3.82.55-2.76 2.7.65 3.81-3.42-1.8-3.42 1.8.65-3.81-2.76-2.7 3.82-.55 1.71-3.47z"/><path style="fill:#c7c7c7" d="m324.77 206.37 1.71 3.47 3.82.55-2.77 2.7.66 3.81-3.42-1.8-3.42 1.8.65-3.81-2.77-2.7 3.83-.55 1.71-3.47zM339.82 206.37l1.71 3.47 3.83.55-2.77 2.7.65 3.81-3.42-1.8-3.42 1.8.66-3.81-2.77-2.7 3.82-.55 1.71-3.47zM354.88 206.37l1.71 3.47 3.83.55-2.77 2.7.65 3.81-3.42-1.8-3.42 1.8.66-3.81-2.77-2.7 3.82-.55 1.71-3.47zM369.94 206.37l1.71 3.47 3.82.55-2.76 2.7.65 3.81-3.42-1.8-3.42 1.8.65-3.81-2.76-2.7 3.82-.55 1.71-3.47z"/><path style="fill:#263238" d="M304.18 225.19h71.44v1.5h-71.44z"/><path style="fill:#fff" d="M304.18 229.76h63.63v1.5h-63.63zM304.18 234.33h52.6v1.5h-52.6zM304.18 238.9h57.5v1.5h-57.5z"/><g style="clip-path:url(#a)"><path d="M262.23 198.67c-10.85 4.88-13.19 20.17-12.48 41.93.11 3.31 28.09 9.06 41.63-1.14 2.18-1.65-.92-28.27-6.29-35.93-6.66-9.53-16.15-7.88-22.86-4.86Z" style="fill:#263238"/><path d="M261.93 198.89c-5.67 2.89-9.32 8.63-11 14.65a92.21 92.21 0 0 0-2.25 13.61 53.52 53.52 0 0 0-.2 13.14.12.12 0 0 0 .24 0 113.07 113.07 0 0 1 2.55-24.52c1.41-6.75 4.88-12.79 10.84-16.44.27-.16.07-.56-.18-.44ZM289.71 211a20.12 20.12 0 0 0-13.62-14.11v.08c7.52 2.84 11.74 8.57 13.64 16.17 2.07 8.28 2.91 16.68 3.59 25.15a.15.15 0 0 0 .3 0 103.06 103.06 0 0 0-3.91-27.29Z" style="fill:#263238"/><path d="m254.18 248.75.09.07c4.91 3.35 14.61 9.23 19.79 7.36a11.66 11.66 0 0 0 6.6-6.85 53.61 53.61 0 0 0-6.41-4.45c-7.65-5.09-14.55-2.04-20.07 3.87Z" style="fill:#a6a6a6"/><path d="M261.57 245.86c.35 1.13 6.34 8.23 11.58 7.63 1.71-.19 1.05-9.56 1.05-9.56l.11-.7 1.52-9.84-11.83-6.55-1.71-.86s-.24 2.72-.5 6.11v.48c0 .16 0 .38-.05.56 0 .5-.09 1-.12 1.53s-.06.78-.07 1.19 0 .82-.07 1.23a64.1 64.1 0 0 0 .09 8.78Z" style="fill:#f7a9a0"/><path d="M261.74 232.09a20 20 0 0 0 12.57 11.14l1.52-9.84-11.83-6.55-1.71-.86s-.29 2.72-.55 6.11Z" style="fill:#263238"/><path d="M288 217c2.74 17.26-7.29 20.85-11 21.44-3.37.53-14.28 1.35-18.79-15.53s2-23 9.64-24.67 17.4 1.52 20.15 18.76Z" style="fill:#f7a9a0"/><path d="M285 216a11.7 11.7 0 0 1-1.15.35 1.88 1.88 0 0 1-1.25.14.62.62 0 0 1-.37-.66 1.55 1.55 0 0 1 1.16-1.05 2.24 2.24 0 0 1 1.63 0A.67.67 0 0 1 285 216ZM272.3 216.51a11.89 11.89 0 0 0 1.2.12 1.91 1.91 0 0 0 1.25-.1.64.64 0 0 0 .23-.73 1.52 1.52 0 0 0-1.34-.8 2.3 2.3 0 0 0-1.6.32.67.67 0 0 0 .26 1.19ZM275.08 220.51s-.09.07-.08.11c.17 1.18.17 2.56-.86 3.07v.07c1.3-.33 1.29-2.16.94-3.25Z" style="fill:#263238"/><path d="M273.89 219.39c-1.92.07-1.64 3.9.13 3.84s1.47-3.89-.13-3.84Z" style="fill:#263238"/><path d="M273.15 219.65c-.32.24-.62.65-1 .71s-.84-.29-1.18-.66c0 0-.06 0-.06.05 0 .74.38 1.47 1.17 1.52s1.2-.63 1.33-1.39c0-.14-.13-.33-.26-.23ZM282.47 219.43s.1 0 .1.1c0 1.19.29 2.55 1.39 2.87v.07c-1.33-.1-1.64-1.9-1.49-3.04Z" style="fill:#263238"/><path d="M283.46 218.12c1.9-.26 2.29 3.56.53 3.8s-2.13-3.57-.53-3.8Z" style="fill:#263238"/><path d="M284.28 218.29c.32.17.66.51 1 .5s.69-.46.91-.89h.07c.09.73-.07 1.51-.76 1.72s-1.16-.38-1.41-1.09c-.02-.09.06-.31.19-.24ZM276.32 229.57c.29.27.59.65 1 .67a3 3 0 0 0 1.27-.33l.05.06a1.58 1.58 0 0 1-1.49.68 1.25 1.25 0 0 1-1-1c.04-.09.13-.12.17-.08ZM280.92 224.87s.39 1.75.46 2.58a12.93 12.93 0 0 0-5.18.73c-.09 0-.27-.11-.05-.27a7.33 7.33 0 0 1 4.54-1.06c0-.23-.74-2.75-.61-2.77a7.71 7.71 0 0 1 1.93.27c-.71-3.66-2-7.19-2.66-10.85a.11.11 0 0 1 .21-.08 61 61 0 0 1 3.37 11.58c.07.47-1.67 0-2.01-.13Z" style="fill:#263238"/><path d="M258.19 222.92c1.86-.26 6.33-5.82 5.74-14.89 0 0 0 8.18-.55 9.43s2.49-3.13 2.12-10.45a29.89 29.89 0 0 0 7.81 3.28c3.53.68 5.64.48 5.87.21s-5-1.46-6.49-2.93c0 0 9.53 3.52 13.78 3.5.49 0-.1-9.1-7-12.84s-16.51.7-19.08 3.62c0 0-3.23.73-6.39 5.86s2.17 15.5 4.19 15.21Z" style="fill:#263238"/><path d="M262.27 224.37s-4.19-5.16-6.56-3.63 1 9.21 4 10.08a3 3 0 0 0 3.84-1.86Z" style="fill:#f7a9a0"/><path d="M256.74 222.91v.08c2.09.68 3.29 2.49 4.18 4.39a1.62 1.62 0 0 0-2.46-.27.06.06 0 0 0 .06.1 1.84 1.84 0 0 1 2 .49 9.1 9.1 0 0 1 1.07 1.55c.11.17.43.05.35-.15-.13-2.64-2.4-6.1-5.2-6.19Z" style="fill:#263238"/></g><path style="fill:#ebebeb" d="M250.55 118.2h150.56v60.19H250.55zM250.58 178.39v11.96l10.84-11.96h-10.84z"/><circle cx="279.43" cy="149.8" r="23.43" style="fill:#fff"/><path style="fill:#f5a523" d="m319.72 130.16 1.71 3.47 3.83.56-2.77 2.7.65 3.82-3.42-1.81-3.43 1.81.66-3.82-2.77-2.7 3.83-.56 1.71-3.47zM334.81 130.16l1.71 3.47 3.83.56-2.77 2.7.65 3.82-3.42-1.81-3.43 1.81.65-3.82-2.77-2.7 3.83-.56 1.72-3.47zM349.89 130.16l1.72 3.47 3.83.56-2.77 2.7.65 3.82-3.43-1.81-3.42 1.81.65-3.82-2.77-2.7 3.83-.56 1.71-3.47z"/><path style="fill:#c7c7c7" d="m364.98 130.16 1.71 3.47 3.83.56-2.77 2.7.66 3.82-3.43-1.81-3.43 1.81.66-3.82-2.77-2.7 3.83-.56 1.71-3.47zM380.07 130.16l1.71 3.47 3.83.56-2.77 2.7.65 3.82-3.42-1.81-3.43 1.81.66-3.82-2.78-2.7 3.83-.56 1.72-3.47z"/><path style="fill:#263238" d="M314.18 148.29h71.44v1.5h-71.44z"/><path style="fill:#fff" d="M314.18 152.86h41.77v1.5h-41.77zM314.18 157.44h61.67v1.5h-61.67zM314.18 162.01h56.35v1.5h-56.35z"/><g style="clip-path:url(#b)"><path d="m286.14 165.33-2.08 9.39L269.9 165l-3.52 5.19s9.27 12.54 19.14 12.54c5.19 0 6.2-11.89 6.2-11.89Z" style="fill:#f5a523"/><path d="M283.76 176c-3.8 1.18-10.86-4.28-13.82-8.89-.2-.32.06-3.82.18-8.09.06-2.59.07-5.48-.11-8.11 0-.54 1.87.32 1.87.32l3.47.59 11.46 2a42 42 0 0 0-.89 10.22 5.18 5.18 0 0 0 .19 1.08 1.68 1.68 0 0 0 0 .18c.51 2 1.34 9.56-2.35 10.7Z" style="fill:#eb9481"/><path d="M286.11 165.15a1.68 1.68 0 0 0 0 .18 10.4 10.4 0 0 1-1.69.21c-11.14.52-13.51-13.53-13.51-13.53l4.41-.12 11.46 2a42.08 42.08 0 0 0-.89 10.23 5.08 5.08 0 0 0 .22 1.03Z" style="fill:#263238"/><path d="M268.58 129.94c-2 5.79.34 22.88 4.35 26.83 5.82 5.74 15.7 6.68 20.67-.39 4.81-6.86 1.32-29.07-3.2-32.7-6.65-5.35-18.8-2.29-21.82 6.26Z" style="fill:#eb9481"/><path d="M285 141.78c0-.05-.08.06-.07.11.19 1.15.21 2.49-.78 3v.07c1.29-.34 1.24-2.13.85-3.18Z" style="fill:#263238"/><path d="M283.83 140.71c-1.87.11-1.52 3.84.22 3.74s1.35-3.83-.22-3.74ZM291.73 141.33s.1 0 .1.1c.07 1.16.35 2.47 1.44 2.76v.06c-1.27-.06-1.65-1.81-1.54-2.92Z" style="fill:#263238"/><path d="M292.65 140c1.85-.32 2.35 3.4.64 3.69s-2.19-3.4-.64-3.69ZM282.2 139.15c.49-.18.92-.43 1.39-.65a2.42 2.42 0 0 0 1.3-.93.8.8 0 0 0-.21-.95 2 2 0 0 0-2 0 2.89 2.89 0 0 0-1.54 1.4.85.85 0 0 0 1.06 1.13ZM293.92 138c-.53 0-1-.16-1.52-.24a2.47 2.47 0 0 1-1.51-.55.8.8 0 0 1 0-1 2 2 0 0 1 1.91-.55 2.88 2.88 0 0 1 1.86.93.84.84 0 0 1-.74 1.41ZM285 152.61c.3.25.61.59 1 .59a3 3 0 0 0 1.22-.41l.06.06a1.56 1.56 0 0 1-1.41.76 1.23 1.23 0 0 1-1-.93c-.03-.07.05-.1.13-.07Z" style="fill:#263238"/><path d="M285.67 149.54c1.18 1 5.13 1 5.14.82l-.32-2.77c.34.14 2.07.73 2 .26a59.82 59.82 0 0 0-2.66-11.77.11.11 0 0 0-.21 0c.43 3.7 1.5 7.31 2 11a7.13 7.13 0 0 0-1.91-.39c-.13.05.46 2.59.45 3a12 12 0 0 1-4.24-.57c-.46-.12-.56.16-.25.42ZM270.66 143.74c1.46-.37 2.83-5.16 2.88-9.8 0-3 1.23-6.75 4.56-7.87 2.21-.75 6.06 1.07 8.27.53s2.61-1.79 3.91-1.76 2.75 3.24 2.75 3.24-2.32-10.11-15.33-6.86c-13.7 3.43-10.94 15.16-9.62 18.92 1.01 2.91 2.58 3.6 2.58 3.6Z" style="fill:#263238"/><path d="M271.62 143.91s-3.71-5.57-6.23-4.26.18 9.33 3.08 10.48a3 3 0 0 0 4-1.51Z" style="fill:#eb9481"/><path d="M266.22 142v.08c2 .88 3.07 2.8 3.78 4.79a1.65 1.65 0 0 0-2.45-.51.07.07 0 0 0 .06.11 1.81 1.81 0 0 1 2 .69 7.87 7.87 0 0 1 .93 1.65c.09.18.43.09.36-.12v-.05c.1-2.64-1.9-6.32-4.68-6.64Z" style="fill:#263238"/></g><path style="fill:#ebebeb" d="M260.55 41.3h150.56v60.19H260.55zM260.58 101.49v11.97l10.84-11.97h-10.84z"/><circle cx="289.43" cy="72.9" r="23.43" style="fill:#fff"/><path style="fill:#f5a523" d="m329.72 54.06 1.71 3.47 3.83.56-2.77 2.7.65 3.82-3.42-1.8-3.43 1.8.66-3.82-2.77-2.7 3.83-.56 1.71-3.47zM344.81 54.06l1.71 3.47 3.83.56-2.77 2.7.65 3.82-3.42-1.8-3.43 1.8.65-3.82-2.77-2.7 3.83-.56 1.72-3.47zM359.89 54.06l1.72 3.47 3.83.56-2.77 2.7.65 3.82-3.43-1.8-3.42 1.8.65-3.82-2.77-2.7 3.83-.56 1.71-3.47zM374.98 54.06l1.71 3.47 3.83.56-2.77 2.7.66 3.82-3.43-1.8-3.43 1.8.66-3.82-2.77-2.7 3.83-.56 1.71-3.47zM390.07 54.06l1.71 3.47 3.83.56-2.77 2.7.65 3.82-3.42-1.8-3.43 1.8.66-3.82-2.78-2.7 3.83-.56 1.72-3.47z"/><path style="fill:#263238" d="M324.18 71.4h71.44v1.5h-71.44z"/><path style="fill:#fff" d="M324.18 75.97h53.15v1.5h-53.15zM324.18 80.54h63.63v1.5h-63.63zM324.18 85.11h27.3v1.5h-27.3z"/><path d="M314 90.74h-2c-.2-2.55-1.82-6.45-1.41-4.48a19.3 19.3 0 0 1 .26 4.48H277c-.39-3.84 1.32-10.15 1.32-10.15-2 3.17-2.71 7.67-3 10.15h-3.19a23.75 23.75 0 0 1 .48-6.21 20.42 20.42 0 0 0-1.61 6.21h-3.64a23.85 23.85 0 0 1 4.23-13.46c2.46-3.67-.58-5.81-.52-13 .06-9.51 6.59-13.16 7.67-14.16 14.77-13.68 28.17-1 29.6 8.05 1.39 8.84-1.15 10 3 18 3.03 6.11 2.66 14.57 2.66 14.57Z" style="fill:#263238"/><path d="m274.18 95.71.09.06c4.91 3.35 14.61 9.23 19.79 7.36a11.65 11.65 0 0 0 6.6-6.84 52.7 52.7 0 0 0-6.41-4.46c-7.65-5.08-14.55-2.04-20.07 3.88Z" style="fill:#455a64"/><path d="M281.57 92.81c.35 1.13 6.34 8.23 11.58 7.63 1.71-.19 1.05-9.56 1.05-9.56l.11-.7 1.52-9.84L284 73.79l-1.71-.85s-.24 2.71-.5 6.1v.49c0 .17 0 .37-.05.55 0 .5-.09 1-.12 1.53s-.06.78-.07 1.19 0 .82-.07 1.23a64.1 64.1 0 0 0 .09 8.78Z" style="fill:#dd6a57"/><path d="M281.74 79a20 20 0 0 0 12.57 11.14l1.52-9.84L284 73.79l-1.71-.85s-.29 2.71-.55 6.06Z" style="fill:#263238"/><path d="M308 64c2.74 17.26-7.29 20.85-11 21.44-3.37.53-15 1.92-19.46-15s2.65-23.61 10.31-25.24S305.25 46.71 308 64Z" style="fill:#dd6a57"/><path d="M278.94 71.65c4.32-.52 4.47-14 4.47-15.59.06 1 .36 6.53.8 6.72a4.4 4.4 0 0 0 1.34-.37 12.91 12.91 0 0 1 0-2c0-.31.17.65.44 1.82l.78-.29a15.74 15.74 0 0 1 .07-4.2c.08-.53.41 1.79 1.08 3.78a52.8 52.8 0 0 1 11.18-2.92c1.08-.13 2-.19 2.84-.22-.13-1.62-.46-3.33-.31-3a15.71 15.71 0 0 1 .93 3h1.24c-.08-2.29-1.47-5.85-1.06-5.33a16.16 16.16 0 0 1 2.68 5.45c1.59.18 2 .45 2.05 0a19.13 19.13 0 0 0-6.78-11.35c-5.85-4.65-16.76-5-22.2 3.33 0 0-4.75 3.69-5.1 9s3.05 12.46 5.55 12.17Z" style="fill:#263238"/><path d="M280.48 71.33s-4.19-5.17-6.57-3.64 1 9.21 4 10.08a2.94 2.94 0 0 0 3.83-1.86Z" style="fill:#dd6a57"/><path d="M275 69.87c-.05 0-.05.06 0 .07 2.09.68 3.29 2.49 4.18 4.39a1.62 1.62 0 0 0-2.46-.27.06.06 0 0 0 .06.1 1.84 1.84 0 0 1 2 .49 9.1 9.1 0 0 1 1.07 1.55c.11.18.43.06.34-.15-.19-2.64-2.44-6.12-5.19-6.18Z" style="fill:#263238"/><path d="M300.78 74a4.77 4.77 0 0 1-1.61 1.86 2.2 2.2 0 0 1-1.29.35c-1-.06-1.19-.92-1.17-1.7a5.2 5.2 0 0 1 .2-1.22 6.35 6.35 0 0 0 3.87.71Z" style="fill:#fff"/><path d="M304.39 61.84c-.41 0-.79-.09-1.2-.14a1.92 1.92 0 0 1-1.19-.38.62.62 0 0 1-.07-.76 1.56 1.56 0 0 1 1.48-.49 2.29 2.29 0 0 1 1.49.67.66.66 0 0 1-.51 1.1ZM292.38 63.27a9.5 9.5 0 0 0 1.15-.35 1.94 1.94 0 0 0 1.11-.58.63.63 0 0 0-.07-.76 1.52 1.52 0 0 0-1.54-.22 2.26 2.26 0 0 0-1.35.92.66.66 0 0 0 .7.99ZM295.08 67.46s-.09.07-.08.11c.17 1.18.17 2.56-.86 3.07v.07c1.3-.33 1.29-2.16.94-3.25Z" style="fill:#263238"/><path d="M293.89 66.34c-1.92.07-1.64 3.9.13 3.84s1.47-3.89-.13-3.84Z" style="fill:#263238"/><path d="M293.15 66.6c-.32.24-.62.65-1 .72s-.84-.3-1.18-.66h-.06c0 .74.38 1.47 1.17 1.53s1.2-.64 1.33-1.39c0-.1-.13-.3-.26-.2ZM302.47 66.38s.1.05.1.1c0 1.19.29 2.55 1.39 2.87v.07c-1.33-.1-1.64-1.9-1.49-3.04Z" style="fill:#263238"/><path d="M303.46 65.08c1.9-.27 2.29 3.55.53 3.8s-2.13-3.58-.53-3.8Z" style="fill:#263238"/><path d="M304.28 65.24c.32.18.66.51 1 .5s.69-.46.91-.89h.07c.09.73-.07 1.51-.76 1.73s-1.16-.39-1.41-1.1c-.02-.09.06-.3.19-.24ZM296.32 76.52c.29.27.59.65 1 .67a3 3 0 0 0 1.27-.33l.05.06a1.58 1.58 0 0 1-1.49.68 1.25 1.25 0 0 1-1-1c.04-.09.13-.12.17-.08ZM300.92 71.82s.39 1.75.46 2.58c0 .08-.19.14-.47.18a4 4 0 0 1-4-1.16c-.06-.07 0-.17.12-.12a6 6 0 0 0 3.71.73c0-.24-.77-3-.64-3a7.32 7.32 0 0 1 1.93.28c-.71-3.67-2-7.2-2.66-10.86a.11.11 0 0 1 .21-.07A60.72 60.72 0 0 1 302.93 72c.07.42-1.67-.07-2.01-.18Z" style="fill:#263238"/><path d="M396.3 360.79s23-5.2 35.54-16.79 19.61-32.36 19.61-32.36a196.65 196.65 0 0 0-25.74 6.76c-2.06 2.2-6 6.73-7.79 11a52.29 52.29 0 0 1-.06-7.87 35 35 0 0 0-8.18 5c-10.43 9.1-13.38 34.26-13.38 34.26Z" style="fill:#f5a523"/><path d="M437.12 321.73c3.13-2.16 6.31-4.25 9.43-6.44a.18.18 0 0 0-.19-.3c-5.92 3.53-11.75 7.31-17.39 11.26-2 1.38-3.9 2.81-5.81 4.28l.4-.68c.69-1.16 1.42-2.29 2.14-3.42a49 49 0 0 1 4.88-6.5c.06-.08-.05-.19-.12-.11-1.78 2.06-3.57 4.1-5.2 6.29-.78 1-1.49 2.11-2.18 3.21-.36.58-.7 1.15-1 1.74l-.35.59c-3 2.33-5.85 4.76-8.61 7.33q-2.56 2.38-4.93 4.93c.88-2.78 1.66-5.59 2.69-8.32a.08.08 0 1 0-.15 0c-1 2.87-2.1 5.75-2.87 8.7-1.76 1.9-3.44 3.86-5 5.91 0-.12.05-.25.08-.37.26-1.08.53-2.16.82-3.24.56-2.07 1.17-4.14 1.87-6.17a36 36 0 0 1 6.17-11.65c.06-.07-.05-.18-.12-.1-4.48 5.3-7.11 11.67-8.79 18.35-.24 1-.48 2-.7 2.94-.12.53-.25 1.06-.34 1.59-.7.94-1.38 1.89-2 2.86a99.84 99.84 0 0 0-9.71 19 221.06 221.06 0 0 0-7.36 22.94c0 .15.19.2.24 0 4.49-13.43 9.07-27 16.76-39.06a89.59 89.59 0 0 1 5.24-7.33 43.42 43.42 0 0 0 11.16-2.22 49.61 49.61 0 0 0 11.19-5.41 66.7 66.7 0 0 0 5.73-4.33.08.08 0 1 0-.1-.12 45.64 45.64 0 0 1-10.52 6.37 56.92 56.92 0 0 1-11.58 3.88c-1.69.37-3.41.65-5.13.88a94.27 94.27 0 0 1 6.77-7.5c.77-.77 1.57-1.51 2.37-2.26a53.69 53.69 0 0 1 8.49-4.86c3.76-1.82 7.46-3.75 11.18-5.64 2.1-1.07 4.19-2.16 6.31-3.19.09-.05 0-.18-.09-.14-3.77 1.83-7.6 3.53-11.41 5.27-3.58 1.64-7.21 3.29-10.65 5.22l-.43.26c3.11-2.7 6.33-5.28 9.62-7.77 2.96-2.25 6.07-4.5 9.19-6.67Z" style="fill:#263238"/><path d="M435.81 333.57c-1.87.81-3.77 1.54-5.61 2.4s-3.71 1.93-5.51 3a.07.07 0 0 0 .07.12c1.83-.88 3.69-1.7 5.5-2.61s3.69-1.93 5.6-2.76c.14-.04.04-.19-.05-.15Z" style="fill:#263238"/><path d="M321.74 245.12a32.83 32.83 0 0 1 6.86 19.06c.07 2.06-.25 4.93-.49 8.3 8.56 4.57 15 12.8 15 12.8-4.86-2.92-11.54-4.1-15.14-3.62a45.38 45.38 0 0 0 .88 6.86c1.59-.09 4.66.12 9.73 1.92a21.81 21.81 0 0 0-8.77 1.75c4.09 13 16.25 26.39 49.83 32.07 0 0 6.48-22.8-5.94-47.26-10.09-19.8-51.96-31.88-51.96-31.88Z" style="fill:#f5a523"/><path d="M391.25 380c-.58-5.56-1.32-11.11-2.18-16.63a328.75 328.75 0 0 0-6.77-32.88 130.21 130.21 0 0 0-4.85-15 21.93 21.93 0 0 0 .13-2.69v-3.22c0-2.16-.12-4.3-.3-6.45a77.8 77.8 0 0 0-2.07-12.59c-.61-2.39-1.33-4.75-2-7.12a.08.08 0 0 0-.15.05 92.2 92.2 0 0 1 2.46 12.53 115.62 115.62 0 0 1 1.13 12.6c0 1.16.06 2.31.07 3.47v1.48a108.7 108.7 0 0 0-5.72-11.69 142.71 142.71 0 0 0-11.5-17.2 7.49 7.49 0 0 0-.27-1.88c-.16-.75-.32-1.5-.49-2.25-.35-1.53-.73-3.06-1.15-4.57-.83-3-1.93-6-2.89-9a.08.08 0 0 0-.15 0c.89 3 1.48 6.06 2.16 9.09.34 1.49.67 3 1 4.49l.48 2.25v.17q-2-2.56-4.16-5.06c-6.42-7.52-13.45-14.46-20.52-21.35-.87-.85-1.77-1.67-2.65-2.51-.07-.07-.18 0-.11.12 6.77 7 13.43 14.19 19.73 21.66 1.5 1.78 3 3.57 4.43 5.39l-2.29-1.52c-2-1.28-3.94-2.52-6-3.66s-4.09-2.26-6.18-3.3-4.46-1.93-6.53-3.14c-.09-.05-.17.1-.08.14a47.63 47.63 0 0 1 6.13 3.39c2 1.21 4.08 2.43 6.09 3.71s4 2.48 5.92 3.76c1.63 1.06 3.24 2.22 4.94 3.2a159.63 159.63 0 0 1 10.76 15.66 116.67 116.67 0 0 1 5.56 10.55l-1.21-.53-3.02-1.31c-2-.88-4-1.73-5.94-2.6-3.77-1.63-7.6-3.14-11.29-4.94a51.34 51.34 0 0 1-6-3.34c-.08-.06-.16.08-.08.13 6.89 4.75 14.61 8.09 22.23 11.47l3.31 1.46c.91.4 1.81.85 2.75 1.2a117.52 117.52 0 0 1 5.68 15.56 317 317 0 0 1 7.34 32.49c1.92 11 3.22 22 4.23 33.11.13 1.38.25 2.76.41 4.14a.44.44 0 0 0 .87 0c-.1-5.65-.67-11.29-1.26-16.84Z" style="fill:#263238"/><path d="M370.82 287.21c-.62-3.41-1.53-6.75-2.45-10.09 0-.1-.17-.06-.15 0 .85 3.28 1.46 6.63 2.08 10s1.18 6.8 1.66 10.22c0 .06.1.06.09 0a90.64 90.64 0 0 0-1.23-10.13ZM356.34 296.47a60.73 60.73 0 0 0-7.3-4.11c-1.22-.63-2.46-1.23-3.7-1.83s-2.61-1.14-3.88-1.78a.08.08 0 0 0-.07.14c1.22.62 2.39 1.36 3.6 2l3.72 2c2.46 1.32 4.87 2.78 7.45 3.85a.19.19 0 0 0 .18-.27Z" style="fill:#263238"/><path d="M396.72 321s21.24-5.07 31-19.32c9.32-13.61 12.33-36.8 12.57-38.84-.39 1.87-4.77 22.14-19.23 31.58-11.06 7.27-21.78 13.22-24.34 26.58Z" style="fill:#263238;opacity:.1"/><path d="M416.33 284.33a27.17 27.17 0 0 0-7.84 12.9s.06.07.07 0a31.77 31.77 0 0 1 7.87-12.8c.07-.05-.03-.17-.1-.1Z" style="fill:#263238"/><path d="M396.72 321s21.24-5.07 31-19.32c9.32-13.61 12.33-36.8 12.57-38.84a.86.86 0 0 0 0-.15s-10.18 14.48-20.89 18.18-25.75 16.49-22.68 40.13Z" style="fill:#f5a523"/><path d="M436.54 270.71a86.93 86.93 0 0 1-6.54 11.23 44.85 44.85 0 0 1-8.74 9c-2.88 2.29-5.93 4.37-8.85 6.61l.06-.1c.55-.82 1.14-1.61 1.74-2.38 1.22-1.55 2.55-3 3.89-4.47 2.64-2.86 5.33-5.67 7.7-8.77a33 33 0 0 0 3.4-5.49c.05-.09-.1-.14-.15-.05-3.44 7.18-10.32 11.77-15.23 17.83-.7.87-1.36 1.76-2 2.69a11.69 11.69 0 0 0-1.22 2.19 44.37 44.37 0 0 0-7.24 7.32 28.68 28.68 0 0 1 .85-4.12 21 21 0 0 1 2.25-5.38c.05-.09-.08-.17-.13-.09a25.73 25.73 0 0 0-2.48 5.35 18.45 18.45 0 0 0-.77 4.58 41.77 41.77 0 0 0-2.87 4.46c.09-.45.17-.91.26-1.36.42-2.12.89-4.23 1.44-6.31a37.71 37.71 0 0 1 5.11-12c.06-.08-.07-.17-.13-.09a45.43 45.43 0 0 0-5.66 11.71c-.68 2.08-1.22 4.2-1.7 6.34-.23 1.05-.44 2.1-.64 3.15-.11.54-.22 1.1-.31 1.66a76.18 76.18 0 0 0-4.9 14.4 210.18 210.18 0 0 0-4.53 26.85 222.78 222.78 0 0 0-1.47 28.53c0 1.19.09 2.39.15 3.58 0 .31.48.35.49 0 .21-4.72.33-9.43.61-14.14s.69-9.42 1.2-14.11a251.58 251.58 0 0 1 4.42-27.46c1.73-7.77 4-15.59 8.2-22.39a41.84 41.84 0 0 1 7.67-9.11c3-2.68 6.23-5 9.37-7.49a52.19 52.19 0 0 0 8.6-8.27 67.79 67.79 0 0 0 6.76-11c.5-1 1-1.91 1.52-2.87.04-.03-.09-.12-.13-.03Z" style="fill:#263238"/><path d="M432.87 273.82a71.32 71.32 0 0 1-4.73 8.28c0 .06.05.12.1.06a57.33 57.33 0 0 0 4.78-8.29c.04-.09-.11-.14-.15-.05Z" style="fill:#263238"/><path d="M318.78 311.64s-.34 30.18 17.71 38.9 27.72 1.45 40 4.37c-.47-.72-9.22-13.31-23.14-16.77-14.35-3.58-30.23-13.92-34.57-26.5Z" style="fill:#f5a523"/><path d="M318.78 311.64s-.34 30.18 17.71 38.9 27.72 1.45 40 4.37a68.09 68.09 0 0 0-20.51-6.06c-11.42-1.38-33.17-8.79-37.2-37.21Z" style="fill:#263238;opacity:.1"/><path d="M377.66 355.45a30.31 30.31 0 0 0-7.17-4.86c-.39-.19-.79-.34-1.18-.51-.19-.24-.4-.47-.61-.69-.54-.56-1.1-1.1-1.7-1.61a24.61 24.61 0 0 0-3.63-2.62c-3-1.76-6.26-3-9.32-4.62-.09-.05-.17.09-.08.13 1.51.79 3 1.65 4.45 2.51s2.89 1.63 4.28 2.53a31.08 31.08 0 0 1 3.57 2.68c.32.28.63.58.93.89a46.07 46.07 0 0 0-6.1-1.62c-3.3-.67-6.64-1.14-9.94-1.85a46.34 46.34 0 0 1-4.79-1.29c-1.5-1.21-3-2.4-4.41-3.71a36.91 36.91 0 0 1-4.67-5.17c-.06-.09-.19 0-.13.08a55.56 55.56 0 0 0 7.4 8.16q-1.17-.44-2.31-1a37.24 37.24 0 0 1-15.38-12.79c-.05-.08-.19 0-.13.08a42.18 42.18 0 0 0 12.44 12 38.19 38.19 0 0 0 7.86 3.72 74.17 74.17 0 0 0 9.77 2.31 68.27 68.27 0 0 1 9.57 2.27 29.19 29.19 0 0 1 8 4.22 37.51 37.51 0 0 1 10.81 13.41c3.42 6.85 5.05 14.51 6 22.07 0 .32.54.32.51 0-.86-12.71-4.25-25.91-14.04-34.72Z" style="fill:#263238"/><path d="M356.72 345.61a10.36 10.36 0 0 0-3.71-3.37 13.53 13.53 0 0 1-4.41-3.65c-.06-.08-.2 0-.14.08a14.93 14.93 0 0 0 3.9 3.49 13.64 13.64 0 0 1 4.25 3.51c.05.07.16.01.11-.06Z" style="fill:#263238"/><path style="fill:#37474f" d="m366.3 377.73.82 16.59 2.51 50.72h37.87l2.51-50.72.82-16.59H366.3z"/><path style="fill:#263238" d="m366.3 377.73.82 16.59h42.89l.82-16.59H366.3z"/><path transform="rotate(180 388.565 378.715)" style="fill:#37474f" d="M363.64 370.8h49.85v15.83h-49.85z"/></svg>